<svg width="244" height="74" viewBox="0 0 244 74" fill="none" xmlns="http://www.w3.org/2000/svg">
<g clip-path="url(#clip0_20_3543)">
<path d="M136.84 49.1523C136.379 48.637 136.026 49.2337 135.809 49.505C135.212 50.2645 134.778 50.6985 134.236 51.1868C132.092 53.0314 128.349 52.8415 128.349 52.8415C125.391 52.8415 123.655 51.6479 121.648 49.0981C119.64 46.5482 120.318 40.7161 120.318 40.7161H133.015C134.805 40.7161 135.89 40.1465 136.352 39.6582C136.65 39.3598 137.41 38.7359 136.786 34.5856C136.053 29.7029 130.465 28.3738 126.884 28.4551C123.303 28.5365 120.861 30.5438 119.749 31.6018C119.287 32.0358 115.869 35.4808 115.869 41.774C115.869 45.4361 116.466 47.6875 117.443 49.7762C118.419 51.865 121.024 55.4727 127.345 55.4727C133.666 55.4727 136.352 51.1326 136.786 50.4544C137.22 49.7762 137.301 49.7762 136.786 49.1795L136.84 49.1523ZM121.512 34.8026C121.946 33.7447 123.981 30.3811 127.318 30.3811C130.655 30.3811 131.957 32.1985 132.391 32.9309C133.313 34.5043 133.205 36.9727 133.205 37.8679C133.205 38.9258 131.93 38.9258 131.93 38.9258H120.481C120.562 37.6509 121.078 35.8606 121.512 34.8026Z" fill="#80B857"/>
<path d="M216.356 49.1523C215.976 48.6911 215.623 49.2608 215.406 49.5591C215.189 49.8575 215.135 50.0474 213.751 51.1596C211.283 53.194 207.864 52.8143 207.864 52.8143C204.121 52.6244 202.493 50.9697 201.164 49.0709C199.319 46.4125 199.861 40.6889 199.861 40.6889H212.558C214.348 40.6889 215.406 40.3091 215.895 39.631C216.139 39.2783 217.115 38.4917 216.329 34.5584C215.352 29.6215 210.442 28.238 206.427 28.4279C202.846 28.5907 200.404 30.5166 199.292 31.5745C198.83 32.0086 195.412 35.4536 195.412 41.7468C195.412 45.4088 196.009 47.6603 196.986 49.749C197.962 51.8377 200.567 55.4455 206.888 55.4455C213.209 55.4455 215.895 51.1053 216.329 50.4272C216.763 49.749 216.844 49.7762 216.329 49.1523H216.356ZM201.028 34.8025C201.462 33.7446 203.497 30.381 206.833 30.381C210.17 30.381 211.445 32.1984 211.907 32.9308C212.91 34.5584 212.802 36.9726 212.721 37.8678C212.639 38.763 211.445 38.9257 211.445 38.9257H199.997C200.078 37.6508 200.594 35.8605 201.028 34.8025Z" fill="#80B857"/>
<path d="M142.754 18.9068V52.4075C142.754 52.8144 143.134 55.1744 145.494 55.1744C147.855 55.1744 149.428 54.4148 150.405 53.7638C151.381 53.0856 151.761 52.7059 152.032 52.4075C152.304 52.1091 152.521 50.156 150.703 51.5123C149.591 52.3261 149.021 52.6245 148.18 52.5703C147.122 52.4889 147.149 51.7565 147.149 50.5629V18.9068C147.149 18.9068 147.285 17.6318 144.897 17.6318C142.673 17.6318 142.754 18.9068 142.754 18.9068Z" fill="#80B857"/>
<path d="M183.855 18.9067V52.4074C183.855 52.4074 183.855 55.1743 186.596 55.1743C188.983 55.1743 190.529 54.4148 191.506 53.7637C192.483 53.0856 192.618 52.8957 193.134 52.4074C193.676 51.9463 193.731 50.2916 191.804 51.5123C191.207 51.892 190.421 52.3803 189.281 52.5702C188.25 52.733 188.25 51.7564 188.25 50.5629V18.9067C188.25 18.9067 188.305 17.686 186.053 17.686C183.828 17.686 183.855 18.9067 183.855 18.9067Z" fill="#80B857"/>
<path d="M178.509 51.6479C177.424 52.1904 177.099 52.4345 176.339 52.2447C175.661 52.0819 175.742 50.8612 175.742 49.9932V34.8568C175.742 32.6054 174.766 31.0049 173.246 29.8385C171.727 28.6721 168.417 28.4551 166.518 28.4551C164.619 28.4551 161.798 28.645 159.79 30.1098C157.783 31.5746 157.159 32.8766 157.159 34.2872C157.159 35.6977 157.647 37.5423 159.655 37.5423C161.662 37.5423 162.476 36.3216 162.747 35.969C163.019 35.6164 161.716 35.8063 161.554 34.4228C161.472 33.6633 161.499 32.4426 162.829 31.5203C164.212 30.5709 165.053 30.4082 166.654 30.3268C168.363 30.2454 171.13 30.598 171.13 33.9617C171.13 37.3253 171.049 40.6076 171.049 40.6076C171.049 40.6076 166.03 40.5804 162.15 42.0724C158.271 43.5643 156.236 46.0057 156.236 49.3964C156.236 52.7872 158.841 55.3913 162.178 55.3913C165.515 55.3913 168.499 53.2212 169.258 52.6244C169.991 52.0277 171.076 50.9155 171.076 50.9155V53.0584C171.076 53.8451 172.026 54.7403 174.087 54.7403C176.149 54.7403 177.587 53.9265 178.184 53.4653C178.781 53.0042 179.188 52.6787 179.405 52.4888C179.649 52.2989 180.137 50.807 178.509 51.5936V51.6479ZM171.076 47.9045C171.076 47.9045 168.282 51.892 164.674 51.892C161.065 51.892 160.658 49.5049 160.658 48.5555C160.658 47.6061 161.499 44.9749 164.538 43.7813C166.41 43.0218 171.076 42.5878 171.076 42.5878V47.9045Z" fill="#80B857"/>
<path d="M242.861 51.6479C241.749 52.1633 241.45 52.4346 240.691 52.2447C239.958 52.0548 240.094 50.8612 240.094 49.9932V34.8568C240.094 32.6054 239.117 31.0049 237.598 29.8385C236.079 28.6721 232.769 28.4551 230.87 28.4551C228.971 28.4551 226.149 28.645 224.142 30.1098C222.134 31.5746 221.51 32.8766 221.51 34.2872C221.51 35.6977 221.999 37.5423 224.006 37.5423C226.014 37.5423 226.828 36.3216 227.099 35.969C227.37 35.6164 226.068 35.8063 225.905 34.4228C225.824 33.6633 225.797 32.524 227.099 31.5746C228.401 30.6252 229.296 30.3539 231.006 30.3539C232.715 30.3539 235.482 30.6252 235.482 33.9888C235.482 37.3524 235.4 40.6347 235.4 40.6347C235.4 40.6347 230.382 40.6076 226.502 42.0995C222.623 43.5914 220.588 46.0328 220.588 49.4236C220.588 52.8143 223.192 55.4184 226.529 55.4184C229.866 55.4184 232.85 53.2483 233.61 52.6516C234.37 52.0548 235.428 50.8884 235.428 50.8884C235.428 50.8884 235.428 52.2447 235.428 53.0313C235.428 53.818 236.35 54.7945 238.439 54.7945C240.528 54.7945 241.939 53.9807 242.535 53.5196C243.132 53.0585 243.512 52.7872 243.756 52.5431C244 52.2989 244.489 50.8884 242.861 51.6479ZM235.428 47.9045C235.428 47.9045 232.633 51.892 229.025 51.892C225.417 51.892 225.01 49.5049 225.01 48.5555C225.01 47.6061 225.851 44.9749 228.889 43.7813C230.761 43.0218 235.428 42.5878 235.428 42.5878V47.9045Z" fill="#80B857"/>
<path d="M215.079 18.6897C214.103 16.6823 210.603 16.7366 207.266 18.9067C203.929 21.0768 201.895 25.4983 201.895 25.4983C201.895 25.4983 204.418 23.8979 206.289 23.491C209.328 22.8128 210.766 24.0064 212.828 23.1926C214.917 22.3788 216.029 20.7241 215.052 18.7168L215.079 18.6897ZM212.556 19.6933C211.39 19.0966 210.142 18.988 208.433 19.2051C208.433 19.2051 210.223 18.0929 212.014 18.0386C213.804 17.9573 214.401 18.7982 214.265 19.4492C214.103 20.1273 213.506 20.1816 212.556 19.6933Z" fill="#80B857"/>
<path d="M8.21951 51.5666C5.66937 51.2139 3.68894 49.5321 2.87506 47.0637C2.08831 44.6223 2.68516 42.0724 4.52994 40.2821L7.54128 37.3254L6.04918 35.8877L3.09209 38.7902C0.731853 41.123 -0.109152 44.5409 0.921758 47.7147C1.95267 50.8884 4.63846 53.1399 7.92109 53.6282L11.8548 54.1978L12.2075 52.1634L8.21951 51.5937V51.5666Z" fill="#80B857" stroke="#80B857" stroke-width="0.36" stroke-miterlimit="10"/>
<path d="M40.3679 12.017L45.1155 9.49426L44.1931 7.62256L39.3913 10.1724C37.4651 11.2032 35.1862 11.2032 33.2601 10.1724L28.5396 7.70394L27.6172 9.57564L32.3105 12.0441C34.8336 13.3733 37.8449 13.3733 40.3679 12.0441V12.017Z" fill="#80B857" stroke="#80B857" stroke-width="0.36" stroke-miterlimit="10"/>
<path d="M25.6916 57.8598C24.4166 55.31 21.9749 53.5197 19.1535 53.1128L13.9718 52.3804L13.6191 54.4148L18.8551 55.1744C20.9983 55.4727 22.8702 56.8291 23.8197 58.7821L26.0986 63.3936L27.9162 62.417L25.6645 57.8327L25.6916 57.8598Z" fill="#80B857" stroke="#80B857" stroke-width="0.36" stroke-miterlimit="10"/>
<path d="M12.9675 13.9158C12.5334 11.3931 13.5101 8.95174 15.5719 7.43268C16.7385 6.56465 18.0949 6.13063 19.4514 6.13063C20.4823 6.13063 21.5403 6.37476 22.517 6.91729L26.0438 8.76186L26.9662 6.89016L23.4936 5.07271C20.5365 3.52652 17.064 3.79778 14.3782 5.77799C11.6924 7.7582 10.3902 11.0133 10.9599 14.2956L11.611 18.0119L13.6457 17.7135L12.9946 13.9429L12.9675 13.9158Z" fill="#80B857" stroke="#80B857" stroke-width="0.36" stroke-miterlimit="10"/>
<path d="M14.8661 24.8207L13.9166 19.4497L11.8819 19.7481L12.8314 25.1733C13.2113 27.3163 12.5059 29.5135 10.9595 31.0325L7.32422 34.6132L8.81632 36.0509L12.4245 32.4974C14.4592 30.49 15.3816 27.6147 14.8933 24.7935L14.8661 24.8207Z" fill="#80B857" stroke="#80B857" stroke-width="0.36" stroke-miterlimit="10"/>
<path d="M69.7476 38.6007L66.8176 35.7524L65.3526 37.2173L68.3097 40.0926C70.1545 41.8829 70.7785 44.4328 69.9917 46.8741C69.205 49.3155 67.2245 51.0244 64.6744 51.4042L60.7949 51.9738L61.1476 54.0083L64.9728 53.4387C68.2555 52.9504 70.9412 50.6718 71.945 47.498C72.9488 44.3243 72.1078 40.9064 69.7204 38.6007H69.7476Z" fill="#80B857" stroke="#80B857" stroke-width="0.36" stroke-miterlimit="10"/>
<path d="M47.2851 57.7786L45.0605 62.3087L46.9053 63.2581L49.1299 58.6738C50.0794 56.7207 51.9242 55.3644 54.0946 55.0389L59.4119 54.2522L59.0592 52.2178L53.7961 53.0044C50.9747 53.4113 48.5331 55.2016 47.2851 57.7786Z" fill="#80B857" stroke="#80B857" stroke-width="0.36" stroke-miterlimit="10"/>
<path d="M60.3897 32.3888L64.0793 35.9694L65.5442 34.5046L61.8275 30.8697C60.2812 29.3507 59.5487 27.1535 59.9014 25.0105L60.8238 19.5582L58.7891 19.2598L57.8938 24.6579C57.4326 27.479 58.355 30.3543 60.4168 32.3345L60.3897 32.3888Z" fill="#80B857" stroke="#80B857" stroke-width="0.36" stroke-miterlimit="10"/>
<path d="M42.4302 67.7339C41.2908 70.0396 39.0933 71.4231 36.5432 71.4502C33.993 71.4502 31.7684 70.0668 30.629 67.7882L28.7571 64.0448L26.9395 65.0213L28.7842 68.7376C30.2492 71.7214 33.2334 73.566 36.5432 73.566H36.5703C39.8801 73.566 42.8643 71.6943 44.3293 68.6833L46.1741 64.9128L44.3293 63.9634L42.4845 67.761L42.4302 67.7339Z" fill="#80B857" stroke="#80B857" stroke-width="0.36" stroke-miterlimit="10"/>
<path d="M50.1061 6.83564C52.3849 5.6421 54.9622 5.80485 57.0512 7.32391C59.1401 8.84298 60.1168 11.2572 59.6827 13.7799L59.0587 17.5505L61.0934 17.8488L61.7174 14.1326C62.26 10.8503 60.9306 7.59517 58.2448 5.6421C55.559 3.68902 52.0594 3.44488 49.1294 4.99107L45.7383 6.78139L46.6607 8.65309L50.0789 6.83564H50.1061Z" fill="#80B857" stroke="#80B857" stroke-width="0.36" stroke-miterlimit="10"/>
<path d="M6.69985 34.0435C4.39387 31.792 3.57999 28.6183 4.58377 25.5259C5.56042 22.4335 8.05631 20.3177 11.2576 19.8566L11.9087 19.7481L11.6102 17.9849L11.0134 18.0662C7.18818 18.6359 4.09545 21.2671 2.92889 24.9563C1.76234 28.6454 2.73899 32.6058 5.50617 35.2913L6.07588 35.861L7.35095 34.6132L6.72698 34.0164L6.69985 34.0435Z" fill="#80B857" stroke="#80B857" stroke-width="0.31" stroke-miterlimit="10"/>
<path d="M47.7194 14.4312C48.886 14.594 50.0254 15.0009 51.0292 15.7333C52.0058 16.4386 52.7383 17.3609 53.2266 18.3916C53.6607 18.5001 54.0948 18.6087 54.5288 18.6629L58.761 19.2597L59.0594 17.4965L54.773 16.8726C52.0601 16.4928 49.727 14.7839 48.5333 12.3425L46.6614 8.59912L45.0879 9.44003L46.9327 13.1563C47.1497 13.5903 47.421 13.9972 47.6923 14.4041L47.7194 14.4312Z" fill="#80B857" stroke="#80B857" stroke-width="0.31" stroke-miterlimit="10"/>
<path d="M59.4936 54.8221C60.0362 57.9958 58.8154 61.0611 56.2381 62.9599C53.6337 64.8859 50.3782 65.13 47.5025 63.6109L46.8785 63.2854L46.0918 64.8859L46.6615 65.1843C50.0798 66.9746 54.1492 66.6762 57.2419 64.3705C60.3618 62.0919 61.881 58.2942 61.2028 54.4966L61.1214 54.0083L59.358 54.2796L59.4394 54.8221H59.4936Z" fill="#80B857" stroke="#80B857" stroke-width="0.31" stroke-miterlimit="10"/>
<path d="M25.5825 63.665C22.7339 65.1841 19.4784 64.94 16.8469 63.0411C14.2425 61.1423 12.9946 58.1042 13.5371 54.9304L13.6185 54.415L11.8551 54.1709L11.7737 54.6592C11.1226 58.4839 12.669 62.2545 15.7889 64.5059C17.5523 65.7809 19.6141 66.4319 21.6759 66.4319C23.2765 66.4319 24.9043 66.0521 26.3964 65.2383L26.8847 64.9671L26.098 63.3666L25.5554 63.6379L25.5825 63.665Z" fill="#80B857" stroke="#80B857" stroke-width="0.31" stroke-miterlimit="10"/>
<path d="M58.5992 43.0762C58.5992 43.0762 58.6263 42.9134 58.6534 42.832C58.5992 42.9677 58.5721 43.0762 58.5449 43.2118C58.5449 43.1575 58.5721 43.1304 58.5992 43.0762Z" fill="#80B857" stroke="#80B857" stroke-width="0.31" stroke-miterlimit="10"/>
<path d="M61.5821 19.6937C64.7833 20.1549 67.2792 22.2707 68.283 25.336C69.2868 28.4012 68.5 31.6021 66.2212 33.8536L65.5701 34.5046L66.8452 35.7524L67.4691 35.1285C70.2092 32.4159 71.1858 28.4555 69.9921 24.7663C68.7985 21.0772 65.6786 18.4731 61.8534 17.9034L61.148 17.7949L60.8496 19.5581L61.6092 19.6666L61.5821 19.6937Z" fill="#80B857" stroke="#80B857" stroke-width="0.31" stroke-miterlimit="10"/>
<path d="M36.5426 59.2163C36.5426 59.2163 36.7053 59.2163 36.7867 59.2163C36.5968 59.2163 36.4069 59.2163 36.2441 59.2163C36.3255 59.2163 36.4069 59.2163 36.4883 59.2163H36.5426Z" fill="#80B857" stroke="#80B857" stroke-width="0.31" stroke-miterlimit="10"/>
<path d="M61.1481 38.8449C60.8225 39.1704 60.497 39.5502 60.2257 39.9028C60.4427 41.0692 60.4156 42.317 60.0086 43.5106C59.6288 44.677 58.9777 45.6807 58.1367 46.4673C58.1367 46.9013 58.191 47.3353 58.2724 47.7694L59.032 52.218L60.7954 51.9468L60.0086 47.471C59.5474 44.7855 60.4156 42.0186 62.3689 40.0927L65.326 37.1902L64.0509 35.9424L61.1209 38.8178L61.1481 38.8449Z" fill="#80B857" stroke="#80B857" stroke-width="0.31" stroke-miterlimit="10"/>
<path d="M39.9616 59.7588C38.9307 60.3284 37.7641 60.654 36.5433 60.6811C36.5433 60.6811 36.4891 60.6811 36.4619 60.6811C35.2411 60.6811 34.0746 60.3556 33.0436 59.813C32.6367 59.9758 32.2298 60.1386 31.85 60.3556L27.9434 62.4443L28.7301 64.0447L32.691 61.956C35.1055 60.6811 37.9812 60.6539 40.3957 61.956L44.2751 63.9905L45.0619 62.39L41.2095 60.3827C40.8026 60.1657 40.3685 60.0029 39.9616 59.8402V59.7588Z" fill="#80B857" stroke="#80B857" stroke-width="0.31" stroke-miterlimit="10"/>
<path d="M19.6946 18.4729C20.21 17.4149 20.9425 16.4655 21.9463 15.7603C22.9229 15.055 24.0081 14.621 25.1475 14.4582C25.3917 14.0784 25.6358 13.6715 25.8529 13.2647L27.6434 9.5755L26.0699 8.76172L24.2523 12.478C23.0586 14.9465 20.7255 16.6554 18.0397 17.0352L13.6719 17.6862L13.9703 19.4494L18.311 18.7984C18.7993 18.717 19.2605 18.6085 19.7217 18.4729H19.6946Z" fill="#80B857" stroke="#80B857" stroke-width="0.31" stroke-miterlimit="10"/>
<path d="M28.947 6.86297C30.3577 3.96047 33.1249 2.2244 36.3533 2.19728H36.3804C39.5817 2.19728 42.376 3.93335 43.7867 6.80871L44.1936 7.6225L45.7671 6.78159L45.3873 6.02206C43.6782 2.57704 40.2328 0.434082 36.3804 0.434082H36.3533C32.5009 0.434082 29.0555 2.60417 27.3464 6.07631L26.9395 6.89009L28.5129 7.70388L28.9199 6.86297H28.947Z" fill="#80B857" stroke="#80B857" stroke-width="0.31" stroke-miterlimit="10"/>
<path d="M14.8386 46.5215C13.9704 45.7077 13.3193 44.6769 12.9395 43.5105C12.5597 42.344 12.5054 41.1505 12.7225 40.0112C12.4512 39.6586 12.1528 39.3059 11.8001 38.9804L8.78874 36.0508L7.51367 37.2986L10.5521 40.2553C12.5054 42.1542 13.4007 44.921 12.9666 47.6065L12.207 52.1094L13.9704 52.3536L14.73 47.9049C14.8114 47.4437 14.8386 46.9826 14.8657 46.5215H14.8386Z" fill="#80B857" stroke="#80B857" stroke-width="0.31" stroke-miterlimit="10"/>
<path d="M59.0605 52.2178L59.4132 54.2794L61.1495 54.0081L60.7968 51.9736L59.0605 52.2178Z" fill="#80B857" stroke="#80B857" stroke-width="0.31" stroke-miterlimit="10"/>
<path d="M45.0602 62.3359L44.2734 63.9364L46.1182 64.8858L46.8778 63.2854L45.0602 62.3359Z" fill="#80B857" stroke="#80B857" stroke-width="0.31" stroke-miterlimit="10"/>
<path d="M58.7617 19.2869L60.8235 19.5852L61.122 17.822L59.0601 17.5508L58.7617 19.2869Z" fill="#80B857" stroke="#80B857" stroke-width="0.31" stroke-miterlimit="10"/>
<path d="M13.9442 19.4497L13.6458 17.6865L11.584 17.9849L11.9095 19.7481L13.9442 19.4497Z" fill="#80B857" stroke="#80B857" stroke-width="0.31" stroke-miterlimit="10"/>
<path d="M27.9427 62.417L26.125 63.3935L26.9117 64.994L28.7294 64.0174L27.9427 62.417Z" fill="#80B857" stroke="#80B857" stroke-width="0.31" stroke-miterlimit="10"/>
<path d="M13.9718 52.3804L12.2084 52.1362L11.8828 54.1707L13.6191 54.4148L13.9718 52.3804Z" fill="#80B857" stroke="#80B857" stroke-width="0.31" stroke-miterlimit="10"/>
<path d="M45.1157 9.46722L46.6892 8.65344L45.7669 6.78174L44.1934 7.62265L45.1157 9.46722Z" fill="#80B857" stroke="#80B857" stroke-width="0.31" stroke-miterlimit="10"/>
<path d="M27.6165 9.57562L28.5117 7.70392L26.9654 6.89014L26.043 8.76184L27.6165 9.57562Z" fill="#80B857" stroke="#80B857" stroke-width="0.31" stroke-miterlimit="10"/>
<path d="M64.0781 35.9692L65.3532 37.217L66.8182 35.7522L65.5431 34.5044L64.0781 35.9692Z" fill="#80B857" stroke="#80B857" stroke-width="0.31" stroke-miterlimit="10"/>
<path d="M8.78888 36.0778L7.3239 34.6401L6.04883 35.8879L7.54093 37.3256L8.78888 36.0778Z" fill="#80B857" stroke="#80B857" stroke-width="0.31" stroke-miterlimit="10"/>
<path d="M54.6913 32.7144C53.3349 31.3852 52.738 29.5135 53.0636 27.6418L53.8774 22.8133C54.1487 21.2672 53.8774 19.7481 53.2263 18.4189C50.9746 17.795 49.0213 16.3845 47.692 14.4585C46.2541 14.2686 44.7892 14.5128 43.4327 15.218L39.1192 17.4966C37.4643 18.3647 35.4567 18.3647 33.8018 17.4966L29.4883 15.218C28.1047 14.4856 26.5855 14.2686 25.1205 14.4856C23.8183 16.4116 21.8921 17.8221 19.6946 18.5003C19.0707 19.8295 18.8265 21.3214 19.0978 22.8405L19.9117 27.6689C20.2372 29.5406 19.6133 31.4123 18.2568 32.7415L14.7571 36.1594C13.6448 37.2444 12.9666 38.6007 12.6953 40.0655C14.1332 41.9101 14.8928 44.2158 14.8385 46.5758C15.8966 47.5795 17.2259 48.2576 18.718 48.4746L23.547 49.1799C25.4189 49.4512 27.0195 50.6176 27.8334 52.3265L30.0037 56.721C30.682 58.1044 31.74 59.1623 33.0422 59.8676C34.0731 59.4878 35.1312 59.2708 36.2163 59.2437C34.1003 59.1623 32.2826 57.9959 31.3331 56.0699L29.1627 51.6755C29.0271 51.4043 28.8643 51.133 28.7015 50.8617C27.8877 50.7532 27.1009 50.482 26.4227 49.9666C25.6902 49.4241 25.1205 48.7188 24.7407 47.9321C24.4151 47.8507 24.0896 47.7694 23.764 47.7151L18.935 47.0098C16.7376 46.6843 15.0013 45.2195 14.3231 43.1037C13.6448 40.9878 14.1874 38.7906 15.7609 37.2444L19.2606 33.8265C19.4776 33.6367 19.6675 33.4197 19.8303 33.1755C19.6675 32.3346 19.6946 31.4394 19.9659 30.5714C20.2372 29.7034 20.7527 28.9438 21.4038 28.3742C21.4038 28.0758 21.3495 27.7503 21.3224 27.4519L20.5085 22.6235C20.1287 20.4263 20.9697 18.3375 22.7874 17.0355C24.5779 15.7334 26.8296 15.5707 28.8101 16.6015L33.1236 18.8801C33.3949 19.0157 33.6662 19.1513 33.9646 19.2598C34.6428 18.9072 35.4025 18.6902 36.2163 18.6631C37.1387 18.6631 38.0069 18.9072 38.7665 19.3141C39.1192 19.2056 39.499 19.0428 39.8245 18.8801L44.1381 16.6015C46.1185 15.5707 48.3431 15.7334 50.1607 17.0355C51.9513 18.3375 52.7923 20.4534 52.4396 22.6506L51.6257 27.479C51.5443 27.8859 51.5443 28.2928 51.5443 28.6997C52.0598 29.2422 52.521 29.8933 52.7651 30.6528C53.0093 31.4394 53.0636 32.2261 52.955 32.9856C53.1721 33.284 53.4162 33.5824 53.6875 33.8537L57.1872 37.2716C58.7064 38.7635 59.2761 40.8522 58.6793 42.9138C59.032 41.8559 59.5474 40.8793 60.2257 39.9842C59.9544 38.5736 59.2761 37.2444 58.191 36.2136L54.6913 32.7958V32.7144Z" fill="#80B857" stroke="#80B857" stroke-width="0.21" stroke-miterlimit="10"/>
<path d="M53.9868 46.9824L49.1578 47.6877C48.8594 47.742 48.561 47.7962 48.2625 47.8776C47.9099 48.6643 47.3673 49.3695 46.6348 49.9121C45.9023 50.4546 45.0342 50.7801 44.166 50.8615C44.0033 51.1056 43.8676 51.3497 43.732 51.621L41.5616 56.0154C40.6392 57.9143 38.8487 59.0807 36.7598 59.1892C37.8449 59.1892 38.903 59.4062 39.9339 59.786C41.1818 59.0807 42.2127 58.0228 42.891 56.6936L45.0613 52.2992C45.9023 50.6173 47.5029 49.4238 49.3477 49.1525L54.1767 48.4473C55.6959 48.2302 57.0524 47.525 58.1104 46.4942C58.0562 45.382 58.219 44.2698 58.5174 43.2119C57.812 45.2464 56.1029 46.6569 53.9597 46.9824H53.9868Z" fill="#80B857" stroke="#80B857" stroke-width="0.21" stroke-miterlimit="10"/>
<path d="M53.226 18.3916C52.7105 17.3608 51.978 16.4385 51.0285 15.7332C50.0247 15.0008 48.8853 14.5668 47.7188 14.4312C49.0481 16.3571 51.0014 17.7677 53.2531 18.3916H53.226Z" fill="#80B857" stroke="#80B857" stroke-width="0.21" stroke-miterlimit="10"/>
<path d="M36.5429 59.2166C36.5429 59.2166 36.5157 59.2166 36.4886 59.2166C36.4072 59.2166 36.3258 59.2166 36.2444 59.2166C35.1593 59.2437 34.1012 59.4607 33.0703 59.8405C34.1012 60.4101 35.2678 60.7085 36.4886 60.7085C36.4886 60.7085 36.5428 60.7085 36.57 60.7085C37.7908 60.7085 38.9573 60.3559 39.9883 59.7862C38.9573 59.4065 37.8993 59.2166 36.8141 59.1895C36.7328 59.1895 36.6514 59.1895 36.57 59.1895L36.5429 59.2166Z" fill="#80B857" stroke="#80B857" stroke-width="0.21" stroke-miterlimit="10"/>
<path d="M12.9398 43.5105C13.3196 44.704 13.9979 45.7077 14.8389 46.5215C14.8931 44.1615 14.1606 41.8558 12.6957 40.0112C12.5058 41.1505 12.56 42.3441 12.9127 43.5105H12.9398Z" fill="#80B857" stroke="#80B857" stroke-width="0.21" stroke-miterlimit="10"/>
<path d="M25.1209 14.4585C23.9815 14.6213 22.8963 15.0553 21.9197 15.7605C20.9159 16.493 20.1834 17.4152 19.668 18.4732C21.8926 17.795 23.8187 16.3844 25.0938 14.4585H25.1209Z" fill="#80B857" stroke="#80B857" stroke-width="0.21" stroke-miterlimit="10"/>
<path d="M58.5985 43.0763C58.5985 43.0763 58.5714 43.1577 58.5442 43.2119C58.2458 44.2699 58.083 45.382 58.1373 46.4942C58.9783 45.6804 59.6294 44.6768 60.0092 43.5375C60.389 42.3439 60.4433 41.0961 60.2262 39.9297C59.548 40.8248 59.0326 41.8014 58.6799 42.8593C58.6799 42.9407 58.6527 43.0221 58.6256 43.1034L58.5985 43.0763Z" fill="#80B857" stroke="#80B857" stroke-width="0.21" stroke-miterlimit="10"/>
<path d="M31.8487 50.2916L34.6973 48.7726C35.8367 48.1758 37.2203 48.1758 38.3869 48.7726L41.2626 50.2916C42.0764 50.7257 42.9446 50.9155 43.7856 50.8884C43.9212 50.8884 44.0569 50.8613 44.2197 50.8342C45.1692 49.3694 46.6342 48.3114 48.3162 47.8503C48.7231 46.928 48.8587 45.8701 48.6688 44.8393L48.0991 41.6384C47.855 40.3364 48.289 39.0343 49.2114 38.112L51.4903 35.8334C52.3042 35.0196 52.7925 33.9889 52.9553 32.9038C52.0329 31.656 51.5445 30.1641 51.5445 28.6179C50.7578 27.8041 49.754 27.2073 48.5603 27.0174L45.3591 26.5563C44.0569 26.3664 42.9446 25.5526 42.3477 24.3591L40.8828 21.4566C40.3944 20.4801 39.662 19.7477 38.7667 19.2323C37.2203 19.7477 35.5112 19.7477 33.9919 19.1509C33.0153 19.6391 32.1743 20.4258 31.686 21.4566L30.2752 24.3591C29.7055 25.5255 28.5932 26.3393 27.3182 26.5292L24.1169 26.9903C23.086 27.1531 22.1907 27.6142 21.4583 28.2652C21.5396 30.0013 20.9699 31.7103 19.8848 33.0937C20.0747 34.0974 20.5901 35.0739 21.3497 35.8334L23.6829 38.112C24.6324 39.0343 25.0664 40.3364 24.8494 41.6384L24.334 44.8393C24.1712 45.8972 24.334 46.9551 24.768 47.8774C26.3958 48.3657 27.8065 49.3965 28.7289 50.807C29.7869 50.9698 30.8721 50.807 31.8487 50.2916ZM27.1283 48.9353C25.8532 48.0131 25.2563 46.5482 25.5005 45.0292L26.016 41.8283C26.2873 40.1465 25.7175 38.4375 24.4967 37.244L22.1636 34.9654C21.0513 33.8804 20.6444 32.3342 21.1327 30.8422C21.5939 29.3774 22.7876 28.3738 24.2797 28.1567L27.4809 27.6956C29.163 27.4515 30.6008 26.3935 31.3333 24.8745L32.744 21.972C33.3951 20.6157 34.6702 19.8019 36.1623 19.7477C36.1623 19.7477 36.2165 19.7477 36.2437 19.7477C37.7629 19.7477 39.1465 20.5886 39.8519 21.972L41.3168 24.8745C42.0764 26.3935 43.5414 27.4515 45.1963 27.6956L48.3976 28.1567C49.9439 28.3738 51.1376 29.4045 51.6259 30.8965C52.1143 32.3613 51.7344 33.8804 50.6493 34.9654L48.3704 37.244C47.1767 38.4375 46.6342 40.1465 46.9326 41.8283L47.5023 45.0292C47.7736 46.5482 47.2039 48.0131 45.9831 48.9353C44.7351 49.8576 43.1887 49.9661 41.8052 49.2337L38.9295 47.7147C38.1427 47.3078 37.2746 47.0908 36.4064 47.1179C35.6197 47.1179 34.8601 47.3349 34.1547 47.7147L31.3062 49.2337C29.9497 49.939 28.4033 49.8305 27.1554 48.9353H27.1283Z" fill="#80B857"/>
<path d="M31.3333 24.8745C30.6008 26.3935 29.163 27.4515 27.4809 27.6956L24.2797 28.1567C22.7876 28.3738 21.5939 29.3774 21.1327 30.8422C20.6444 32.3342 21.0513 33.8804 22.1636 34.9654L24.4967 37.244C25.7175 38.4375 26.2873 40.1465 26.016 41.8283L25.5005 45.0292C25.2563 46.5482 25.8532 48.0131 27.1283 48.9353H27.1554C28.4033 49.8305 29.9497 49.939 31.3062 49.2337L34.1547 47.7147C34.8601 47.3349 35.6197 47.1179 36.4064 47.1179C37.2746 47.0908 38.1427 47.3078 38.9295 47.7147L41.8052 49.2337C43.1887 49.9661 44.7351 49.8576 45.9831 48.9353C47.2039 48.0131 47.7736 46.5482 47.5023 45.0292L46.9326 41.8283C46.6342 40.1465 47.1767 38.4375 48.3704 37.244L50.6493 34.9654C51.7344 33.8804 52.1143 32.3613 51.6259 30.8965C51.1376 29.4045 49.9439 28.3738 48.3976 28.1567L45.1963 27.6956C43.5414 27.4515 42.0764 26.3935 41.3168 24.8745L39.8519 21.972C39.1465 20.5886 37.7629 19.7477 36.2437 19.7477C36.2165 19.7477 36.1623 19.7477 36.1623 19.7477C34.6702 19.8019 33.3951 20.6157 32.744 21.972L31.3333 24.8745ZM31.3333 24.8745L30.7907 24.6032M31.8487 50.2916L34.6973 48.7726C35.8367 48.1758 37.2203 48.1758 38.3869 48.7726L41.2626 50.2916C42.0764 50.7257 42.9446 50.9155 43.7856 50.8884C43.9212 50.8884 44.0569 50.8613 44.2197 50.8342C45.1692 49.3694 46.6342 48.3114 48.3162 47.8503C48.7231 46.928 48.8587 45.8701 48.6688 44.8393L48.0991 41.6384C47.855 40.3364 48.289 39.0343 49.2114 38.112L51.4903 35.8334C52.3042 35.0196 52.7925 33.9889 52.9553 32.9038C52.0329 31.656 51.5445 30.1641 51.5445 28.6179C50.7578 27.8041 49.754 27.2073 48.5603 27.0174L45.3591 26.5563C44.0569 26.3664 42.9446 25.5526 42.3477 24.3591L40.8828 21.4566C40.3944 20.4801 39.662 19.7477 38.7667 19.2323C37.2203 19.7477 35.5112 19.7477 33.9919 19.1509C33.0153 19.6391 32.1743 20.4258 31.686 21.4566L30.2752 24.3591C29.7055 25.5255 28.5932 26.3393 27.3182 26.5292L24.1169 26.9903C23.086 27.1531 22.1907 27.6142 21.4583 28.2652C21.5396 30.0013 20.9699 31.7103 19.8848 33.0937C20.0747 34.0974 20.5901 35.0739 21.3497 35.8334L23.6829 38.112C24.6324 39.0343 25.0664 40.3364 24.8494 41.6384L24.334 44.8393C24.1712 45.8972 24.334 46.9551 24.768 47.8774C26.3958 48.3657 27.8065 49.3965 28.7289 50.807C29.7869 50.9698 30.8721 50.807 31.8487 50.2916Z" stroke="#80B857" stroke-width="0.1" stroke-miterlimit="10"/>
<path d="M20.0215 30.5168C19.7502 31.3849 19.7231 32.28 19.8859 33.1209C20.971 31.7646 21.5408 30.0557 21.4594 28.2925C20.8083 28.8893 20.2928 29.6217 20.0215 30.4897V30.5168Z" fill="#80B857" stroke="#80B857" stroke-width="0.1" stroke-miterlimit="10"/>
<path d="M24.7676 47.8774C25.1474 48.6641 25.69 49.3694 26.4496 49.9119C27.1549 50.4002 27.9417 50.6986 28.7284 50.8071C27.7789 49.3965 26.3953 48.3657 24.7676 47.8774Z" fill="#80B857" stroke="#80B857" stroke-width="0.1" stroke-miterlimit="10"/>
<path d="M38.7394 19.2327C37.9797 18.7986 37.1116 18.5545 36.1892 18.5816C35.3753 18.5816 34.6429 18.8258 33.9375 19.1784C35.4839 19.7481 37.1659 19.7752 38.7122 19.2598L38.7394 19.2327Z" fill="#80B857" stroke="#80B857" stroke-width="0.1" stroke-miterlimit="10"/>
<path d="M52.7111 30.5712C52.4669 29.8117 52.0328 29.1607 51.4902 28.6182C51.4902 30.1644 51.9786 31.6563 52.901 32.9041C53.0095 32.1446 52.9552 31.3308 52.7111 30.5712Z" fill="#80B857" stroke="#80B857" stroke-width="0.1" stroke-miterlimit="10"/>
<path d="M44.1934 50.8613C45.0615 50.7528 45.9025 50.4544 46.6621 49.9119C47.3946 49.3694 47.9372 48.6641 48.2899 47.8774C46.6079 48.3386 45.1429 49.3965 44.1934 50.8613Z" fill="#80B857" stroke="#80B857" stroke-width="0.1" stroke-miterlimit="10"/>
<path d="M36.4339 39.1703C38.3329 39.1703 39.8522 37.6241 39.8522 35.7253C39.8522 33.8265 38.3058 32.2803 36.4339 32.2803C34.562 32.2803 33.0156 33.8265 33.0156 35.7253C33.0156 37.6241 34.562 39.1703 36.4339 39.1703Z" fill="#80B857"/>
<path d="M92.7549 55.2831C92.972 55.3102 93.1076 55.3374 93.3789 55.3645C94.3284 55.473 95.3593 55.5001 95.495 55.5001C96.9328 55.5273 97.6382 55.5544 98.2622 55.5273C99.4287 55.473 100.568 55.3374 101.68 55.0932C102.82 54.8491 103.878 54.5236 104.882 54.0896C105.885 53.6556 106.808 53.1402 107.676 52.5163C108.517 51.8924 109.249 51.16 109.846 50.2919C110.443 49.4239 110.904 48.4745 111.23 47.3894C111.555 46.3044 111.664 45.1108 111.61 43.7817C111.528 42.2083 111.176 40.852 110.552 39.7399C109.928 38.6277 109.087 37.6783 108.029 36.9459C106.971 36.2135 105.75 35.671 104.339 35.3183C102.928 34.9657 101.409 34.7487 99.7543 34.7215V34.5859C100.975 34.2061 102.142 33.7179 103.227 33.094C104.312 32.4972 105.289 31.7648 106.103 30.9239C106.916 30.083 107.567 29.1064 108.029 27.9671C108.49 26.855 108.68 25.6072 108.598 24.1966C108.544 23.2201 108.354 22.352 108.056 21.6196C107.73 20.8872 107.323 20.2362 106.781 19.7208C106.265 19.1783 105.641 18.7443 104.936 18.4188C104.231 18.0661 103.471 17.822 102.63 17.6321C101.789 17.4422 100.921 17.3337 99.9984 17.2795C99.076 17.2252 98.1536 17.2252 97.177 17.2795C96.0104 17.3337 94.7896 17.4422 93.5688 17.605C92.3209 17.7677 91.0729 17.9576 89.8521 18.1746C88.6313 18.3916 87.4376 18.6358 86.2711 18.8799C85.4029 19.0698 85.5114 19.0427 84.7518 19.2054C84.372 19.2868 83.748 19.4224 83.748 19.8022C83.748 20.2633 84.0193 20.8601 84.5077 20.8059C85.2944 20.7516 85.4843 20.6702 86.0269 20.6431C86.5423 20.6431 86.9764 20.6431 87.3291 20.7245C87.6818 20.8059 87.9531 20.9415 88.143 21.1314C88.3329 21.3212 88.4957 21.5925 88.577 21.918C88.6584 22.2435 88.7398 22.6233 88.7398 23.0844C88.8212 24.6306 88.8755 26.2582 88.9569 27.8858V52.8418C88.9569 54.2252 88.9569 55.039 89.0111 55.3645C89.0925 56.124 89.5537 56.2054 89.7436 56.2054C89.7707 56.2054 89.8521 56.2054 89.9064 56.1783C89.9878 56.1512 90.042 56.0969 90.0691 56.0698C90.2048 55.9342 90.3947 55.7171 90.666 55.5273C90.9373 55.3374 91.2357 55.1204 91.6426 55.0932C91.9139 55.0932 91.9682 55.1475 92.6735 55.256L92.7549 55.2831ZM93.2433 21.4569V21.05C93.2433 21.05 93.1076 20.5617 93.0262 19.8836C93.0262 19.5038 93.3247 19.5309 93.5688 19.5038C93.8944 19.4495 94.247 19.3953 94.5726 19.341C95.1152 19.2597 95.6578 19.2325 96.1732 19.2054C97.2584 19.1512 98.2622 19.2054 99.2388 19.3953C100.188 19.5852 101.029 19.9107 101.762 20.399C102.494 20.8872 103.091 21.5383 103.525 22.3792C103.959 23.2201 104.231 24.2509 104.285 25.4987C104.339 26.5566 104.231 27.506 103.959 28.3469C103.688 29.1878 103.308 29.9473 102.82 30.5712C102.332 31.2223 101.708 31.7648 101.029 32.2531C100.324 32.7142 99.5644 33.1211 98.7234 33.4195C97.8824 33.7179 97.0142 33.9891 96.0918 34.1519C95.4407 34.2875 94.7625 34.3689 94.1114 34.4503C93.8401 34.4774 93.5688 34.3689 93.4332 34.1519V33.9078L93.2704 21.4298L93.2433 21.4569ZM93.4332 51.5126C93.4332 46.6842 93.4332 41.8557 93.4332 37.0273C93.4332 36.6746 93.6773 36.3762 94.03 36.322C94.1657 36.322 94.3013 36.322 94.437 36.2949C94.7896 36.2677 95.1694 36.2406 95.5221 36.2135C97.3126 36.1321 98.9133 36.2135 100.324 36.539C101.735 36.8374 102.928 37.3256 103.932 38.0038C104.936 38.682 105.696 39.55 106.238 40.635C106.781 41.6929 107.106 42.9679 107.188 44.4056C107.269 45.9517 107.079 47.3081 106.645 48.4474C106.211 49.5866 105.56 50.5361 104.719 51.2685C103.525 52.3535 102.304 52.7875 101.735 52.9774C101.626 53.0045 101.545 53.0317 101.491 53.0588C100.27 53.4114 99.2659 53.4657 97.9637 53.4928C95.2508 53.5742 94.4641 53.4657 94.1114 53.0588C93.8401 52.7604 93.6773 52.4078 93.6773 52.4078C93.5146 52.0551 93.4874 51.7296 93.4874 51.5397L93.4332 51.5126Z" fill="#80B857"/>
</g>
<defs>
<clipPath id="clip0_20_3543">
<rect width="244" height="74" fill="white"/>
</clipPath>
</defs>
</svg>
